<svg width="12" height="12" viewBox="0 0 12 12" fill="none" xmlns="http://www.w3.org/2000/svg">
<path fill-rule="evenodd" clip-rule="evenodd" d="M1.125 2.625C1.125 2.21079 1.46079 1.875 1.875 1.875H10.125C10.5392 1.875 10.875 2.21079 10.875 2.625V9.375C10.875 9.78921 10.5392 10.125 10.125 10.125H1.875C1.46079 10.125 1.125 9.78921 1.125 9.375V2.625ZM10.125 2.625H1.875V9.375H10.125V2.625Z" fill="black"/>
<path fill-rule="evenodd" clip-rule="evenodd" d="M3.1875 4.5C3.1875 4.29289 3.35539 4.125 3.5625 4.125H8.4375C8.64461 4.125 8.8125 4.29289 8.8125 4.5C8.8125 4.70711 8.64461 4.875 8.4375 4.875H3.5625C3.35539 4.875 3.1875 4.70711 3.1875 4.5Z" fill="black"/>
<path fill-rule="evenodd" clip-rule="evenodd" d="M3.1875 6C3.1875 5.79289 3.35539 5.625 3.5625 5.625H8.4375C8.64461 5.625 8.8125 5.79289 8.8125 6C8.8125 6.20711 8.64461 6.375 8.4375 6.375H3.5625C3.35539 6.375 3.1875 6.20711 3.1875 6Z" fill="black"/>
<path fill-rule="evenodd" clip-rule="evenodd" d="M3.1875 7.5C3.1875 7.29289 3.35539 7.125 3.5625 7.125H8.4375C8.64461 7.125 8.8125 7.29289 8.8125 7.5C8.8125 7.70711 8.64461 7.875 8.4375 7.875H3.5625C3.35539 7.875 3.1875 7.70711 3.1875 7.5Z" fill="black"/>
</svg>
