<svg width="12" height="12" viewBox="0 0 12 12" fill="none" xmlns="http://www.w3.org/2000/svg">
<path fill-rule="evenodd" clip-rule="evenodd" d="M1.125 3.75C1.125 3.33579 1.46079 3 1.875 3H10.125C10.5392 3 10.875 3.33579 10.875 3.75V9.75C10.875 10.1642 10.5392 10.5 10.125 10.5H1.875C1.46079 10.5 1.125 10.1642 1.125 9.75V3.75ZM10.125 3.75H1.875V9.75H10.125V3.75Z" fill="black"/>
<path fill-rule="evenodd" clip-rule="evenodd" d="M6 1.875C5.60218 1.875 5.22064 2.03304 4.93934 2.31434C4.65804 2.59564 4.5 2.97718 4.5 3.375V4.875C4.5 5.08211 4.33211 5.25 4.125 5.25C3.91789 5.25 3.75 5.08211 3.75 4.875V3.375C3.75 2.77826 3.98705 2.20597 4.40901 1.78401C4.83097 1.36205 5.40326 1.125 6 1.125C6.59674 1.125 7.16903 1.36205 7.59099 1.78401C8.01295 2.20597 8.25 2.77826 8.25 3.375V4.875C8.25 5.08211 8.08211 5.25 7.875 5.25C7.66789 5.25 7.5 5.08211 7.5 4.875V3.375C7.5 2.97718 7.34196 2.59564 7.06066 2.31434C6.77936 2.03304 6.39782 1.875 6 1.875Z" fill="black"/>
</svg>
