<svg width="12" height="12" viewBox="0 0 12 12" fill="none" xmlns="http://www.w3.org/2000/svg">
<path fill-rule="evenodd" clip-rule="evenodd" d="M2.5 2C2.36739 2 2.24021 2.05268 2.14645 2.14645C2.05268 2.24021 2 2.36739 2 2.5V9.5C2 9.63261 2.05268 9.75978 2.14645 9.85355C2.24021 9.94732 2.36739 10 2.5 10H4.5C4.77614 10 5 10.2239 5 10.5C5 10.7761 4.77614 11 4.5 11H2.5C2.10218 11 1.72064 10.842 1.43934 10.5607C1.15804 10.2794 1 9.89783 1 9.5V2.5C1 2.10218 1.15804 1.72064 1.43934 1.43934C1.72064 1.15804 2.10218 1 2.5 1H4.5C4.77614 1 5 1.22386 5 1.5C5 1.77614 4.77614 2 4.5 2H2.5Z" fill="black"/>
<path fill-rule="evenodd" clip-rule="evenodd" d="M7.64645 3.14645C7.84171 2.95118 8.15829 2.95118 8.35355 3.14645L10.8536 5.64645C11.0488 5.84171 11.0488 6.15829 10.8536 6.35355L8.35355 8.85355C8.15829 9.04882 7.84171 9.04882 7.64645 8.85355C7.45118 8.65829 7.45118 8.34171 7.64645 8.14645L9.79289 6L7.64645 3.85355C7.45118 3.65829 7.45118 3.34171 7.64645 3.14645Z" fill="black"/>
<path fill-rule="evenodd" clip-rule="evenodd" d="M4 6C4 5.72386 4.22386 5.5 4.5 5.5H10.5C10.7761 5.5 11 5.72386 11 6C11 6.27614 10.7761 6.5 10.5 6.5H4.5C4.22386 6.5 4 6.27614 4 6Z" fill="black"/>
</svg>
